<?xml version="1.0" standalone="no"?><svg xmlns="http://www.w3.org/2000/svg" viewBox="0 0 1440 320"><path fill="#6c5ce7" fill-opacity="1" d="M0,256L21.8,234.7C43.6,213,87,171,131,181.3C174.5,192,218,256,262,256C305.5,256,349,192,393,154.7C436.4,117,480,107,524,101.3C567.3,96,611,96,655,117.3C698.2,139,742,181,785,213.3C829.1,245,873,267,916,245.3C960,224,1004,160,1047,154.7C1090.9,149,1135,203,1178,234.7C1221.8,267,1265,277,1309,266.7C1352.7,256,1396,224,1418,208L1440,192L1440,0L1418.2,0C1396.4,0,1353,0,1309,0C1265.5,0,1222,0,1178,0C1134.5,0,1091,0,1047,0C1003.6,0,960,0,916,0C872.7,0,829,0,785,0C741.8,0,698,0,655,0C610.9,0,567,0,524,0C480,0,436,0,393,0C349.1,0,305,0,262,0C218.2,0,175,0,131,0C87.3,0,44,0,22,0L0,0Z"></path></svg>